<mxfile host="app.diagrams.net" modified="2023-10-09T15:24:02.754Z" agent="Mozilla/5.0 (Windows NT 10.0; Win64; x64) AppleWebKit/537.36 (KHTML, like Gecko) Chrome/117.0.0.0 Safari/537.36 Edg/117.0.2045.60" etag="C_b66YnpJ3NTgrIOtGsE" version="22.0.4" type="github">
  <diagram name="Page-1" id="W9g8ZL2G6DjQNR9luLZu">
    <mxGraphModel dx="2253" dy="759" grid="1" gridSize="10" guides="1" tooltips="1" connect="1" arrows="1" fold="1" page="1" pageScale="1" pageWidth="827" pageHeight="1169" math="0" shadow="0">
      <root>
        <mxCell id="0" />
        <mxCell id="1" parent="0" />
        <mxCell id="VFZLexwzBfUBSj6KJXx8-3" value="" style="edgeStyle=orthogonalEdgeStyle;rounded=0;orthogonalLoop=1;jettySize=auto;html=1;" parent="1" source="VFZLexwzBfUBSj6KJXx8-1" edge="1">
          <mxGeometry relative="1" as="geometry">
            <mxPoint x="60" y="140" as="targetPoint" />
          </mxGeometry>
        </mxCell>
        <mxCell id="VFZLexwzBfUBSj6KJXx8-1" value="Start" style="strokeWidth=2;html=1;shape=mxgraph.flowchart.terminator;whiteSpace=wrap;labelBackgroundColor=none;fillColor=#d5e8d4;strokeColor=#82b366;" parent="1" vertex="1">
          <mxGeometry x="10" y="40" width="100" height="60" as="geometry" />
        </mxCell>
        <mxCell id="0rkgS3m4PVt1bPab5M6U-17" value="" style="edgeStyle=orthogonalEdgeStyle;rounded=0;orthogonalLoop=1;jettySize=auto;html=1;" parent="1" source="VFZLexwzBfUBSj6KJXx8-7" target="0rkgS3m4PVt1bPab5M6U-16" edge="1">
          <mxGeometry relative="1" as="geometry" />
        </mxCell>
        <mxCell id="VFZLexwzBfUBSj6KJXx8-7" value="No of Files" style="shape=parallelogram;html=1;strokeWidth=2;perimeter=parallelogramPerimeter;whiteSpace=wrap;rounded=1;arcSize=12;size=0.23;fillColor=#fff2cc;strokeColor=#d6b656;" parent="1" vertex="1">
          <mxGeometry x="10" y="140" width="100" height="60" as="geometry" />
        </mxCell>
        <mxCell id="QYTzz9gWE6Tw0O9pt23d-1" value="&lt;b&gt;DEV / TEST / ABN&lt;/b&gt;" style="edgeStyle=orthogonalEdgeStyle;rounded=0;orthogonalLoop=1;jettySize=auto;html=1;entryX=0.5;entryY=0;entryDx=0;entryDy=0;exitX=0.5;exitY=1;exitDx=0;exitDy=0;exitPerimeter=0;" edge="1" parent="1" source="0rkgS3m4PVt1bPab5M6U-16" target="VFZLexwzBfUBSj6KJXx8-8">
          <mxGeometry x="0.0588" y="-10" relative="1" as="geometry">
            <mxPoint as="offset" />
          </mxGeometry>
        </mxCell>
        <mxCell id="0rkgS3m4PVt1bPab5M6U-16" value="Stage" style="strokeWidth=2;html=1;shape=mxgraph.flowchart.decision;whiteSpace=wrap;fillColor=#fff2cc;strokeColor=#d6b656;" parent="1" vertex="1">
          <mxGeometry x="25" y="230" width="70" height="50" as="geometry" />
        </mxCell>
        <mxCell id="0rkgS3m4PVt1bPab5M6U-20" value="" style="group" parent="1" vertex="1" connectable="0">
          <mxGeometry x="-430" y="440" width="940" height="320" as="geometry" />
        </mxCell>
        <mxCell id="VFZLexwzBfUBSj6KJXx8-8" value="Internal/External" style="rhombus;whiteSpace=wrap;html=1;strokeWidth=2;rounded=1;arcSize=12;fillColor=#ffe6cc;strokeColor=#d79b00;" parent="0rkgS3m4PVt1bPab5M6U-20" vertex="1">
          <mxGeometry x="430" y="10" width="120" height="90" as="geometry" />
        </mxCell>
        <mxCell id="VFZLexwzBfUBSj6KJXx8-23" value="End" style="strokeWidth=2;html=1;shape=mxgraph.flowchart.terminator;whiteSpace=wrap;fillColor=#f8cecc;strokeColor=#b85450;" parent="0rkgS3m4PVt1bPab5M6U-20" vertex="1">
          <mxGeometry x="400" y="130" width="100" height="60" as="geometry" />
        </mxCell>
        <mxCell id="0rkgS3m4PVt1bPab5M6U-2" value="" style="group" parent="0rkgS3m4PVt1bPab5M6U-20" vertex="1" connectable="0">
          <mxGeometry x="640" y="20" width="300" height="300" as="geometry" />
        </mxCell>
        <object label="&lt;pre&gt;&lt;b&gt;Loop for no of files&lt;/b&gt;&lt;/pre&gt;" id="VFZLexwzBfUBSj6KJXx8-14">
          <mxCell style="whiteSpace=wrap;html=1;aspect=fixed;fillColor=none;rounded=1;glass=0;shadow=0;arcSize=27;verticalAlign=top;" parent="0rkgS3m4PVt1bPab5M6U-2" vertex="1">
            <mxGeometry x="10" y="25" width="300" height="300" as="geometry" />
          </mxCell>
        </object>
        <mxCell id="0rkgS3m4PVt1bPab5M6U-4" value="" style="edgeStyle=orthogonalEdgeStyle;rounded=0;orthogonalLoop=1;jettySize=auto;html=1;" parent="0rkgS3m4PVt1bPab5M6U-2" source="VFZLexwzBfUBSj6KJXx8-10" target="VFZLexwzBfUBSj6KJXx8-15" edge="1">
          <mxGeometry relative="1" as="geometry" />
        </mxCell>
        <mxCell id="VFZLexwzBfUBSj6KJXx8-10" value="Get Upload Token" style="whiteSpace=wrap;html=1;strokeWidth=2;rounded=1;arcSize=12;fillColor=#dae8fc;strokeColor=#6c8ebf;" parent="0rkgS3m4PVt1bPab5M6U-2" vertex="1">
          <mxGeometry x="30" y="82.5" width="120" height="60" as="geometry" />
        </mxCell>
        <mxCell id="VFZLexwzBfUBSj6KJXx8-12" value="Upload File" style="whiteSpace=wrap;html=1;strokeWidth=2;rounded=1;arcSize=12;fillColor=#dae8fc;strokeColor=#6c8ebf;" parent="0rkgS3m4PVt1bPab5M6U-2" vertex="1">
          <mxGeometry x="30" y="172.5" width="120" height="60" as="geometry" />
        </mxCell>
        <mxCell id="VFZLexwzBfUBSj6KJXx8-13" value="" style="edgeStyle=orthogonalEdgeStyle;rounded=0;orthogonalLoop=1;jettySize=auto;html=1;" parent="0rkgS3m4PVt1bPab5M6U-2" source="VFZLexwzBfUBSj6KJXx8-10" target="VFZLexwzBfUBSj6KJXx8-12" edge="1">
          <mxGeometry relative="1" as="geometry" />
        </mxCell>
        <mxCell id="VFZLexwzBfUBSj6KJXx8-15" value="Copy the fileId to a csv file." style="whiteSpace=wrap;html=1;strokeWidth=2;rounded=1;arcSize=12;fillColor=#dae8fc;strokeColor=#6c8ebf;" parent="0rkgS3m4PVt1bPab5M6U-2" vertex="1">
          <mxGeometry x="170" y="82.5" width="120" height="60" as="geometry" />
        </mxCell>
        <mxCell id="VFZLexwzBfUBSj6KJXx8-27" style="edgeStyle=orthogonalEdgeStyle;rounded=0;orthogonalLoop=1;jettySize=auto;html=1;exitX=0.5;exitY=1;exitDx=0;exitDy=0;" parent="0rkgS3m4PVt1bPab5M6U-2" source="VFZLexwzBfUBSj6KJXx8-14" target="VFZLexwzBfUBSj6KJXx8-14" edge="1">
          <mxGeometry relative="1" as="geometry" />
        </mxCell>
        <mxCell id="VFZLexwzBfUBSj6KJXx8-16" value="" style="edgeStyle=orthogonalEdgeStyle;rounded=0;orthogonalLoop=1;jettySize=auto;html=1;" parent="0rkgS3m4PVt1bPab5M6U-2" source="VFZLexwzBfUBSj6KJXx8-10" target="VFZLexwzBfUBSj6KJXx8-15" edge="1">
          <mxGeometry relative="1" as="geometry" />
        </mxCell>
        <mxCell id="VFZLexwzBfUBSj6KJXx8-11" value="" style="edgeStyle=orthogonalEdgeStyle;rounded=0;orthogonalLoop=1;jettySize=auto;html=1;" parent="0rkgS3m4PVt1bPab5M6U-20" source="VFZLexwzBfUBSj6KJXx8-8" target="VFZLexwzBfUBSj6KJXx8-10" edge="1">
          <mxGeometry relative="1" as="geometry" />
        </mxCell>
        <mxCell id="VFZLexwzBfUBSj6KJXx8-24" value="" style="edgeStyle=orthogonalEdgeStyle;rounded=0;orthogonalLoop=1;jettySize=auto;html=1;" parent="0rkgS3m4PVt1bPab5M6U-20" source="VFZLexwzBfUBSj6KJXx8-12" target="VFZLexwzBfUBSj6KJXx8-23" edge="1">
          <mxGeometry relative="1" as="geometry" />
        </mxCell>
        <mxCell id="0rkgS3m4PVt1bPab5M6U-3" value="" style="group;horizontal=0;verticalAlign=top;" parent="0rkgS3m4PVt1bPab5M6U-20" vertex="1" connectable="0">
          <mxGeometry y="12.5" width="295" height="295" as="geometry" />
        </mxCell>
        <mxCell id="VFZLexwzBfUBSj6KJXx8-28" value="&lt;pre style=&quot;&quot;&gt;Loop for No of files&lt;/pre&gt;" style="whiteSpace=wrap;html=1;aspect=fixed;rounded=1;fillColor=none;arcSize=23;align=center;verticalAlign=top;horizontal=1;fontStyle=1" parent="0rkgS3m4PVt1bPab5M6U-3" vertex="1">
          <mxGeometry y="7.5" width="295" height="295" as="geometry" />
        </mxCell>
        <mxCell id="VFZLexwzBfUBSj6KJXx8-17" value="Upload File" style="whiteSpace=wrap;html=1;strokeWidth=2;rounded=1;arcSize=12;fillColor=#dae8fc;strokeColor=#6c8ebf;" parent="0rkgS3m4PVt1bPab5M6U-3" vertex="1">
          <mxGeometry x="170" y="100" width="120" height="60" as="geometry" />
        </mxCell>
        <mxCell id="VFZLexwzBfUBSj6KJXx8-29" value="Copy the fileId to a csv file." style="whiteSpace=wrap;html=1;strokeWidth=2;rounded=1;arcSize=12;fillColor=#dae8fc;strokeColor=#6c8ebf;" parent="0rkgS3m4PVt1bPab5M6U-3" vertex="1">
          <mxGeometry x="10" y="100" width="120" height="60" as="geometry" />
        </mxCell>
        <mxCell id="VFZLexwzBfUBSj6KJXx8-30" value="" style="edgeStyle=orthogonalEdgeStyle;rounded=0;orthogonalLoop=1;jettySize=auto;html=1;" parent="0rkgS3m4PVt1bPab5M6U-3" source="VFZLexwzBfUBSj6KJXx8-17" target="VFZLexwzBfUBSj6KJXx8-29" edge="1">
          <mxGeometry relative="1" as="geometry" />
        </mxCell>
        <mxCell id="0rkgS3m4PVt1bPab5M6U-21" style="edgeStyle=orthogonalEdgeStyle;rounded=0;orthogonalLoop=1;jettySize=auto;html=1;exitX=0.5;exitY=1;exitDx=0;exitDy=0;" parent="0rkgS3m4PVt1bPab5M6U-3" source="VFZLexwzBfUBSj6KJXx8-29" target="VFZLexwzBfUBSj6KJXx8-29" edge="1">
          <mxGeometry relative="1" as="geometry" />
        </mxCell>
        <UserObject label="" id="VFZLexwzBfUBSj6KJXx8-18">
          <mxCell style="edgeStyle=orthogonalEdgeStyle;rounded=0;orthogonalLoop=1;jettySize=auto;html=1;" parent="0rkgS3m4PVt1bPab5M6U-20" source="VFZLexwzBfUBSj6KJXx8-8" target="VFZLexwzBfUBSj6KJXx8-17" edge="1">
            <mxGeometry relative="1" as="geometry" />
          </mxCell>
        </UserObject>
        <mxCell id="VFZLexwzBfUBSj6KJXx8-26" style="edgeStyle=orthogonalEdgeStyle;rounded=0;orthogonalLoop=1;jettySize=auto;html=1;exitX=0.5;exitY=1;exitDx=0;exitDy=0;entryX=0;entryY=0.5;entryDx=0;entryDy=0;entryPerimeter=0;" parent="0rkgS3m4PVt1bPab5M6U-20" source="VFZLexwzBfUBSj6KJXx8-17" target="VFZLexwzBfUBSj6KJXx8-23" edge="1">
          <mxGeometry relative="1" as="geometry" />
        </mxCell>
      </root>
    </mxGraphModel>
  </diagram>
</mxfile>
